<svg preserveAspectRatio="none" overflow="visible" style="display: block;" width="835.105" height="907" viewBox="0 0 835.105 907" fill="none" xmlns="http://www.w3.org/2000/svg">
<g id="Group 9">
<path id="Vector" d="M130.098 373.673C130.188 380.036 132.494 386.125 136.553 390.647C140.601 395.157 146.072 397.745 151.811 397.86V437.188H123.855V430.112C127.663 429.971 131.278 428.226 133.964 425.233C136.766 422.112 138.333 417.888 138.333 413.494C138.333 409.101 136.766 404.877 133.964 401.756C131.278 398.763 127.663 397.017 123.855 396.876V373.673H130.098Z" stroke="white" stroke-opacity="0.3"/>
<path id="Vector_2" d="M297.177 579.234C297.27 585.664 299.67 591.817 303.89 596.382C308.103 600.939 313.794 603.548 319.758 603.659V643.382H290.644V636.228C294.601 636.091 298.362 634.332 301.159 631.308C304.071 628.157 305.702 623.891 305.702 619.451C305.702 615.011 304.071 610.746 301.159 607.596C298.362 604.571 294.601 602.811 290.644 602.674V579.234H297.177Z" stroke="white" stroke-opacity="0.3"/>
<path id="Vector_3" d="M376.807 125.102C376.897 131.465 379.204 137.554 383.262 142.075C387.311 146.586 392.781 149.174 398.52 149.289V188.616H370.564V181.541C374.372 181.4 377.987 179.655 380.673 176.662C383.475 173.541 385.042 169.317 385.042 164.923C385.042 160.529 383.475 156.306 380.673 153.185C377.987 150.192 374.372 148.446 370.564 148.305V125.102H376.807Z" stroke="white" stroke-opacity="0.3"/>
<path id="Vector_4" d="M543.886 331.296C543.983 337.541 546.385 343.513 550.604 347.944C554.819 352.37 560.508 354.901 566.468 355.009V393.546H537.353V386.63C541.305 386.497 545.064 384.79 547.862 381.852C550.777 378.792 552.411 374.645 552.411 370.327C552.411 366.008 550.777 361.861 547.862 358.801C545.064 355.863 541.305 354.156 537.353 354.023V331.296H543.886Z" stroke="white" stroke-opacity="0.3"/>
<path id="Vector_5" d="M253.452 249.071C253.543 255.434 255.849 261.524 259.908 266.045C263.956 270.555 269.426 273.143 275.165 273.259V312.586H247.209V305.511C251.018 305.37 254.632 303.624 257.319 300.632C260.121 297.51 261.688 293.286 261.688 288.892C261.688 284.499 260.121 280.276 257.319 277.154C254.632 274.162 251.018 272.415 247.209 272.274V249.071H253.452Z" stroke="white" stroke-opacity="0.3"/>
<path id="Vector_6" d="M420.532 455.265C420.626 461.633 423.027 467.726 427.247 472.246C431.46 476.76 437.151 479.343 443.114 479.452V518.78H413.999V511.705C417.954 511.57 421.714 509.828 424.511 506.832C427.425 503.712 429.056 499.486 429.056 495.086C429.056 490.687 427.424 486.462 424.511 483.341C421.714 480.345 417.954 478.603 413.999 478.467V455.265H420.532Z" stroke="white" stroke-opacity="0.3"/>
<path id="Vector_7" d="M499.727 0.5C499.819 6.86569 502.174 12.9568 506.313 17.4775C510.444 21.9892 516.024 24.5751 521.875 24.6875V64.0146H493.339V56.9395C497.221 56.8011 500.909 55.0587 503.651 52.0645C506.509 48.9433 508.107 44.718 508.107 40.3213C508.107 35.9248 506.509 31.7002 503.651 28.5791C500.909 25.5848 497.221 23.8415 493.339 23.7031V0.5H499.727Z" stroke="white" stroke-opacity="0.3"/>
<path id="Vector_8" d="M666.951 206.061C667.04 212.486 669.346 218.635 673.405 223.201C677.453 227.755 682.923 230.37 688.664 230.486V270.209H660.708V263.054C664.518 262.911 668.133 261.148 670.819 258.127C673.621 254.975 675.186 250.712 675.186 246.278C675.186 241.844 673.621 237.581 670.819 234.43C668.133 231.408 664.518 229.644 660.708 229.502V206.061H666.951Z" stroke="white" stroke-opacity="0.3"/>
<path id="Vector_9" d="M185.984 443.88C186.078 450.249 188.479 456.341 192.699 460.862C196.913 465.375 202.603 467.958 208.566 468.068V507.395H179.451V500.32C183.407 500.185 187.167 498.443 189.964 495.447C192.877 492.327 194.509 488.101 194.509 483.701C194.509 479.302 192.877 475.077 189.964 471.956C187.167 468.96 183.407 467.218 179.451 467.082V443.88H185.984Z" stroke="white" stroke-opacity="0.3"/>
<path id="Vector_10" d="M353.643 650.074C353.734 656.375 356.041 662.405 360.099 666.882C364.148 671.348 369.618 673.91 375.355 674.024V712.956H347.399V705.96C351.205 705.82 354.82 704.092 357.507 701.129C360.31 698.037 361.877 693.854 361.877 689.501C361.877 685.148 360.31 680.963 357.507 677.872C354.82 674.908 351.205 673.179 347.399 673.04V650.074H353.643Z" stroke="white" stroke-opacity="0.3"/>
<path id="Vector_11" d="M432.404 195.309C432.496 201.61 434.802 207.64 438.86 212.117C442.909 216.583 448.379 219.145 454.116 219.259V258.191H426.16V251.195C429.967 251.055 433.582 249.327 436.269 246.364C439.071 243.272 440.639 239.089 440.639 234.736C440.639 230.383 439.071 226.198 436.269 223.107C433.582 220.143 429.967 218.414 426.16 218.275V195.309H432.404Z" stroke="white" stroke-opacity="0.3"/>
<path id="Vector_12" d="M599.483 401.503C599.578 407.81 601.98 413.842 606.2 418.317C610.414 422.787 616.103 425.344 622.064 425.453V464.385H592.95V457.389C596.903 457.255 600.663 455.532 603.46 452.565C606.374 449.475 608.007 445.288 608.007 440.93C608.007 436.57 606.374 432.384 603.46 429.293C600.663 426.326 596.903 424.602 592.95 424.468V401.503H599.483Z" stroke="white" stroke-opacity="0.3"/>
<path id="Vector_13" d="M309.193 319.278C309.285 325.644 311.64 331.735 315.779 336.256C319.91 340.767 325.49 343.353 331.341 343.466V382.793H302.806V375.718C306.688 375.579 310.376 373.837 313.117 370.843C315.975 367.722 317.573 363.496 317.573 359.1C317.573 354.703 315.975 350.478 313.117 347.357C310.375 344.363 306.688 342.62 302.806 342.481V319.278H309.193Z" stroke="white" stroke-opacity="0.3"/>
<path id="Vector_14" d="M476.562 524.84C476.654 531.205 479.008 537.296 483.148 541.817C487.279 546.329 492.859 548.915 498.709 549.027V588.354H470.174V581.279C474.056 581.141 477.744 579.398 480.486 576.404C483.344 573.283 484.942 569.058 484.942 564.661C484.942 560.264 483.343 556.04 480.486 552.919C477.744 549.924 474.056 548.181 470.174 548.043V524.84H476.562Z" stroke="white" stroke-opacity="0.3"/>
<path id="Vector_15" d="M555.758 69.4421C555.846 75.9284 558.151 82.1383 562.21 86.7488C566.258 91.3459 571.729 93.9858 577.471 94.1033V134.221H549.515V126.988C553.327 126.844 556.943 125.064 559.628 122.013C562.429 118.832 563.993 114.529 563.993 110.054C563.993 105.579 562.429 101.277 559.628 98.0954C556.943 95.0452 553.327 93.2636 549.515 93.1199V69.4421H555.758Z" stroke="white" stroke-opacity="0.3"/>
<path id="Vector_16" d="M722.838 276.268C722.931 282.637 725.332 288.73 729.552 293.25C733.766 297.763 739.456 300.346 745.419 300.456V339.783H716.304V332.709C720.26 332.573 724.02 330.832 726.817 327.836C729.73 324.715 731.362 320.489 731.362 316.09C731.362 311.691 729.73 307.465 726.817 304.345C724.02 301.349 720.26 299.606 716.304 299.471V276.268H722.838Z" stroke="white" stroke-opacity="0.3"/>
<path id="Vector_17" d="M241.725 510.925C241.819 517.419 244.265 523.633 248.567 528.242C252.862 532.845 258.663 535.477 264.742 535.586V575.704H235.047V568.472C239.08 568.336 242.914 566.562 245.765 563.507C248.733 560.327 250.394 556.02 250.394 551.537C250.394 547.054 248.733 542.747 245.765 539.567C242.914 536.512 239.08 534.737 235.047 534.601V510.925H241.725Z" stroke="white" stroke-opacity="0.3"/>
<path id="Vector_18" d="M409.673 717.751C409.761 724.111 412.021 730.199 415.998 734.721C419.964 739.229 425.324 741.821 430.951 741.939V781.266H403.574V774.19C407.309 774.047 410.851 772.298 413.482 769.308C416.229 766.186 417.763 761.963 417.763 757.572C417.763 753.182 416.229 748.96 413.482 745.838C410.851 742.847 407.309 741.098 403.574 740.954V717.751H409.673Z" stroke="white" stroke-opacity="0.3"/>
<path id="Vector_19" d="M487.565 262.354C487.657 268.719 490.012 274.81 494.151 279.331C498.283 283.843 503.863 286.429 509.714 286.541V325.868H481.178V318.793C485.059 318.655 488.747 316.912 491.489 313.918C494.347 310.797 495.945 306.572 495.945 302.175C495.945 297.778 494.347 293.554 491.489 290.433C488.747 287.438 485.059 285.695 481.178 285.557V262.354H487.565Z" stroke="white" stroke-opacity="0.3"/>
<path id="Vector_20" d="M655.658 468.547C655.751 474.978 658.151 481.13 662.371 485.695C666.585 490.252 672.275 492.862 678.24 492.972V532.695H649.125V525.542C653.082 525.404 656.843 523.645 659.64 520.621C662.553 517.47 664.183 513.204 664.183 508.764C664.183 504.324 662.552 500.059 659.64 496.909C656.843 493.884 653.082 492.124 649.125 491.987V468.547H655.658Z" stroke="white" stroke-opacity="0.3"/>
<path id="Vector_21" d="M364.935 387.588C365.029 393.956 367.43 400.049 371.65 404.569C375.864 409.083 381.553 411.666 387.516 411.775V451.103H358.402V444.028C362.358 443.893 366.118 442.151 368.915 439.155C371.828 436.035 373.46 431.809 373.46 427.409C373.46 423.01 371.828 418.785 368.915 415.664C366.118 412.668 362.358 410.926 358.402 410.79V387.588H364.935Z" stroke="white" stroke-opacity="0.3"/>
<path id="Vector_22" d="M532.593 593.782C532.683 600.145 534.99 606.234 539.048 610.755C543.097 615.265 548.567 617.854 554.306 617.969V657.296H526.35V650.221C530.158 650.08 533.773 648.335 536.459 645.342C539.261 642.221 540.828 637.997 540.828 633.603C540.828 629.209 539.261 624.986 536.459 621.865C533.773 618.872 530.158 617.126 526.35 616.985V593.782H532.593Z" stroke="white" stroke-opacity="0.3"/>
<path id="Vector_23" d="M611.356 138.384C611.447 144.686 613.753 150.715 617.812 155.192C621.861 159.658 627.33 162.22 633.067 162.334V201.266H605.111V194.27C608.918 194.13 612.533 192.403 615.22 189.439C618.022 186.347 619.59 182.164 619.59 177.811C619.59 173.458 618.022 169.274 615.22 166.182C612.533 163.218 608.918 161.49 605.111 161.35V138.384H611.356Z" stroke="white" stroke-opacity="0.3"/>
<path id="Vector_24" d="M778.434 343.946C778.528 350.314 780.929 356.407 785.149 360.927C789.363 365.441 795.053 368.024 801.016 368.133V407.46H771.901V400.386C775.856 400.25 779.617 398.509 782.413 395.513C785.327 392.392 786.958 388.166 786.958 383.767C786.958 379.368 785.327 375.142 782.413 372.022C779.617 369.026 775.856 367.284 771.901 367.148V343.946H778.434Z" stroke="white" stroke-opacity="0.3"/>
<path id="Vector_25" d="M6.88867 499.54C6.9819 505.844 9.33569 511.875 13.4746 516.351C17.6062 520.819 23.186 523.379 29.0352 523.49V562.422H0.5V555.426C4.38029 555.289 8.06742 553.564 10.8096 550.598C13.6679 547.507 15.2675 543.322 15.2676 538.966C15.2676 534.61 13.6681 530.425 10.8096 527.334C8.06742 524.368 4.38028 522.643 0.5 522.506V499.54H6.88867Z" stroke="white" stroke-opacity="0.3"/>
<path id="Vector_26" d="M174.692 705.101C174.784 711.341 177.092 717.311 181.15 721.743C185.199 726.165 190.668 728.701 196.404 728.814V767.351H168.448V760.434C172.253 760.296 175.867 758.586 178.554 755.651C181.358 752.589 182.926 748.445 182.926 744.132C182.926 739.82 181.357 735.676 178.554 732.614C175.867 729.679 172.253 727.968 168.448 727.83V705.101H174.692Z" stroke="white" stroke-opacity="0.3"/>
<path id="Vector_27" d="M63.0633 569.114C63.1554 575.48 65.5099 581.571 69.6492 586.092C73.7803 590.604 79.36 593.189 85.2108 593.302V632.629H56.6756V625.554C60.5575 625.415 64.2455 623.673 66.9871 620.679C69.845 617.558 71.4432 613.332 71.4432 608.936C71.4431 604.539 69.8448 600.315 66.9871 597.193C64.2454 594.199 60.5575 592.456 56.6756 592.318V569.114H63.0633Z" stroke="white" stroke-opacity="0.3"/>
<path id="Vector_28" d="M230.287 775.308C230.378 781.671 232.684 787.761 236.742 792.282C240.791 796.792 246.261 799.381 252 799.496V838.823H224.044V831.748C227.852 831.607 231.467 829.861 234.153 826.869C236.956 823.747 238.523 819.523 238.523 815.13C238.523 810.736 236.956 806.513 234.153 803.391C231.467 800.399 227.852 798.652 224.044 798.511V775.308H230.287Z" stroke="white" stroke-opacity="0.3"/>
<path id="Vector_29" d="M118.66 636.159C118.75 642.648 121.102 648.858 125.242 653.469C129.372 658.068 134.953 660.706 140.807 660.82V700.938H112.272V693.705C116.157 693.564 119.846 691.785 122.586 688.733C125.443 685.552 127.04 681.249 127.04 676.771C127.04 672.294 125.443 667.989 122.586 664.808C119.846 661.757 116.157 659.978 112.272 659.837V636.159H118.66Z" stroke="white" stroke-opacity="0.3"/>
<path id="Vector_30" d="M285.884 842.985C285.974 849.348 288.28 855.438 292.339 859.959C296.387 864.469 301.858 867.058 307.597 867.173V906.5H279.64V899.425C283.449 899.284 287.063 897.538 289.75 894.546C292.552 891.424 294.119 887.2 294.119 882.807C294.119 878.413 292.552 874.19 289.75 871.068C287.063 868.076 283.449 866.329 279.64 866.188V842.985H285.884Z" stroke="white" stroke-opacity="0.3"/>
<path id="Vector_31" d="M63.0633 493.48C63.1554 487.114 65.5099 481.023 69.6492 476.502C73.7804 471.991 79.36 469.405 85.2108 469.292L85.2108 429.965L56.6756 429.965L56.6756 437.04C60.5575 437.179 64.2455 438.921 66.9871 441.915C69.845 445.036 71.4432 449.262 71.4432 453.658C71.4431 458.055 69.8448 462.28 66.9871 465.401C64.2454 468.395 60.5575 470.138 56.6756 470.277L56.6756 493.48L63.0633 493.48Z" stroke="white" stroke-opacity="0.3"/>
<path id="Vector_32" d="M230.287 699.674C230.376 693.249 232.683 687.1 236.741 682.534C240.789 677.98 246.259 675.366 252 675.25L252 635.526L224.044 635.526L224.044 642.681C227.854 642.824 231.469 644.587 234.155 647.608C236.957 650.76 238.523 655.023 238.523 659.457C238.523 663.891 236.957 668.154 234.155 671.305C231.469 674.327 227.854 676.091 224.044 676.233L224.044 699.674L230.287 699.674Z" stroke="white" stroke-opacity="0.3"/>
<path id="Vector_33" d="M309.193 244.909C309.284 238.481 311.638 232.331 315.777 227.765C319.908 223.21 325.488 220.597 331.341 220.484L331.341 180.761L302.806 180.761L302.806 187.915C306.689 188.055 310.377 189.816 313.118 192.839C315.975 195.99 317.573 200.255 317.573 204.692C317.573 209.129 315.975 213.393 313.118 216.544C310.377 219.567 306.689 221.329 302.806 221.468L302.806 244.909L309.193 244.909Z" stroke="white" stroke-opacity="0.3"/>
<path id="Vector_34" d="M476.562 451.103C476.654 444.737 479.008 438.646 483.148 434.125C487.279 429.613 492.859 427.027 498.709 426.915L498.709 387.588L470.174 387.588L470.174 394.663C474.056 394.801 477.744 396.544 480.486 399.538C483.344 402.659 484.942 406.885 484.942 411.281C484.942 415.678 483.343 419.902 480.486 423.023C477.744 426.018 474.056 427.761 470.174 427.899L470.174 451.103L476.562 451.103Z" stroke="white" stroke-opacity="0.3"/>
<path id="Vector_35" d="M185.984 368.245C186.079 361.939 188.481 355.907 192.701 351.431C196.915 346.961 202.605 344.404 208.566 344.295L208.566 305.364L179.451 305.364L179.451 312.359C183.405 312.493 187.165 314.216 189.962 317.183C192.876 320.274 194.509 324.46 194.509 328.819C194.509 333.178 192.876 337.365 189.962 340.455C187.165 343.422 183.405 345.146 179.451 345.281L179.451 368.245L185.984 368.245Z" stroke="white" stroke-opacity="0.3"/>
<path id="Vector_36" d="M353.642 575.704C353.73 569.218 356.035 563.008 360.094 558.398C364.141 553.801 369.612 551.161 375.355 551.043L375.355 510.925L347.399 510.925L347.399 518.158C351.21 518.302 354.827 520.083 357.512 523.133C360.313 526.314 361.877 530.617 361.877 535.092C361.877 539.567 360.313 543.87 357.512 547.051C354.827 550.101 351.21 551.883 347.399 552.027L347.399 575.704L353.642 575.704Z" stroke="white" stroke-opacity="0.3"/>
<path id="Vector_37" d="M432.403 120.307C432.494 113.944 434.8 107.854 438.858 103.333C442.907 98.8231 448.377 96.2345 454.116 96.1193L454.116 56.7922L426.16 56.7922L426.16 63.8674C429.969 64.0084 433.583 65.7538 436.27 68.7463C439.072 71.8679 440.639 76.0917 440.639 80.4855C440.639 84.8792 439.072 89.1023 436.27 92.2238C433.583 95.2164 429.969 96.9627 426.16 97.1037L426.16 120.307L432.403 120.307Z" stroke="white" stroke-opacity="0.3"/>
<path id="Vector_38" d="M599.483 325.868C599.577 319.5 601.978 313.407 606.198 308.887C610.411 304.374 616.101 301.79 622.064 301.681L622.064 262.354L592.95 262.354L592.95 269.428C596.905 269.564 600.665 271.305 603.462 274.301C606.376 277.422 608.007 281.647 608.007 286.047C608.007 290.446 606.375 294.671 603.462 297.792C600.665 300.788 596.905 302.53 592.95 302.666L592.95 325.868L599.483 325.868Z" stroke="white" stroke-opacity="0.3"/>
<path id="Vector_39" d="M118.661 563.054C118.754 556.75 121.108 550.719 125.247 546.243C129.378 541.775 134.958 539.215 140.807 539.104L140.807 500.173L112.272 500.173L112.272 507.168C116.152 507.305 119.839 509.03 122.582 511.996C125.44 515.087 127.04 519.272 127.04 523.628C127.04 527.984 125.44 532.169 122.582 535.26C119.839 538.226 116.152 539.952 112.272 540.089L112.272 563.054L118.661 563.054Z" stroke="white" stroke-opacity="0.3"/>
<path id="Vector_40" d="M285.884 769.881C285.973 763.456 288.279 757.307 292.338 752.741C296.386 748.187 301.856 745.573 307.597 745.457L307.597 705.733L279.64 705.733L279.64 712.889C283.451 713.031 287.066 714.794 289.752 717.815C292.553 720.967 294.119 725.23 294.119 729.664C294.119 734.098 292.553 738.361 289.752 741.513C287.066 744.534 283.451 746.298 279.64 746.44L279.64 769.881L285.884 769.881Z" stroke="white" stroke-opacity="0.3"/>
<path id="Vector_41" d="M364.935 314.483C365.03 308.176 367.432 302.144 371.652 297.669C375.866 293.199 381.555 290.642 387.516 290.533L387.516 251.601L358.402 251.601L358.402 258.597C362.356 258.731 366.116 260.454 368.913 263.421C371.827 266.511 373.46 270.698 373.46 275.057C373.46 279.416 371.827 283.602 368.913 286.693C366.116 289.66 362.356 291.384 358.402 291.518L358.402 314.483L364.935 314.483Z" stroke="white" stroke-opacity="0.3"/>
<path id="Vector_42" d="M532.593 520.677C532.683 514.314 534.99 508.225 539.048 503.703C543.097 499.193 548.567 496.605 554.306 496.49L554.306 457.162L526.35 457.162L526.35 464.238C530.158 464.379 533.773 466.124 536.459 469.117C539.261 472.238 540.828 476.462 540.828 480.856C540.828 485.25 539.261 489.473 536.459 492.594C533.773 495.587 530.158 497.333 526.35 497.474L526.35 520.677L532.593 520.677Z" stroke="white" stroke-opacity="0.3"/>
<path id="Vector_43" d="M241.725 439.718C241.82 433.285 244.267 427.132 248.568 422.567C252.864 418.008 258.665 415.401 264.742 415.293L264.742 375.57L235.047 375.57L235.047 382.723C239.078 382.858 242.912 384.615 245.763 387.641C248.732 390.791 250.394 395.058 250.394 399.501C250.394 403.944 248.732 408.21 245.763 411.36C242.912 414.386 239.078 416.143 235.047 416.278L235.047 439.718L241.725 439.718Z" stroke="white" stroke-opacity="0.3"/>
<path id="Vector_44" d="M409.673 645.911C409.76 639.49 412.018 633.341 415.996 628.775C419.961 624.223 425.322 621.607 430.951 621.488L430.951 581.764L403.574 581.764L403.574 588.919C407.311 589.064 410.854 590.83 413.484 593.85C416.23 597.002 417.763 601.263 417.763 605.695C417.763 610.126 416.23 614.388 413.484 617.539C410.854 620.559 407.311 622.326 403.574 622.471L403.574 645.911L409.673 645.911Z" stroke="white" stroke-opacity="0.3"/>
<path id="Vector_45" d="M487.566 189.881C487.659 183.577 490.013 177.546 494.152 173.07C498.284 168.602 503.864 166.042 509.714 165.931L509.714 127L481.178 127L481.178 133.995C485.058 134.132 488.745 135.857 491.487 138.823C494.345 141.914 495.945 146.099 495.945 150.455C495.945 154.811 494.346 158.996 491.487 162.088C488.745 165.053 485.058 166.779 481.178 166.916L481.178 189.881L487.566 189.881Z" stroke="white" stroke-opacity="0.3"/>
<path id="Vector_46" d="M655.658 396.075C655.751 389.645 658.151 383.493 662.371 378.928C666.585 374.37 672.275 371.761 678.24 371.651L678.24 331.928L649.125 331.928L649.125 339.081C653.082 339.218 656.843 340.977 659.64 344.002C662.553 347.153 664.183 351.419 664.183 355.859C664.183 360.298 662.552 364.563 659.64 367.714C656.843 370.739 653.082 372.499 649.125 372.636L649.125 396.075L655.658 396.075Z" stroke="white" stroke-opacity="0.3"/>
<path id="Vector_47" d="M174.691 631.997C174.781 625.634 177.087 619.544 181.146 615.023C185.194 610.513 190.665 607.924 196.404 607.809L196.404 568.482L168.448 568.482L168.448 575.557C172.256 575.698 175.871 577.443 178.557 580.436C181.359 583.558 182.926 587.781 182.926 592.175C182.926 596.569 181.359 600.792 178.557 603.914C175.871 606.906 172.256 608.652 168.448 608.793L168.448 631.997L174.691 631.997Z" stroke="white" stroke-opacity="0.3"/>
<path id="Vector_48" d="M341.77 838.19C341.864 831.822 344.265 825.729 348.485 821.209C352.699 816.696 358.388 814.113 364.351 814.003L364.351 774.676L335.237 774.676L335.237 781.75C339.192 781.886 342.953 783.627 345.75 786.623C348.663 789.744 350.295 793.97 350.295 798.369C350.294 802.768 348.663 806.994 345.75 810.114C342.953 813.11 339.192 814.852 335.237 814.988L335.237 838.19L341.77 838.19Z" stroke="white" stroke-opacity="0.3"/>
<path id="Vector_49" d="M420.532 382.793C420.626 376.424 423.027 370.332 427.247 365.811C431.46 361.298 437.151 358.715 443.114 358.605L443.114 319.278L413.999 319.278L413.999 326.352C417.954 326.488 421.714 328.23 424.511 331.225C427.425 334.346 429.056 338.572 429.056 342.972C429.056 347.371 427.424 351.596 424.511 354.717C421.714 357.713 417.954 359.455 413.999 359.591L413.999 382.793L420.532 382.793Z" stroke="white" stroke-opacity="0.3"/>
<path id="Vector_50" d="M588.334 588.354C588.426 581.989 590.781 575.897 594.92 571.377C599.051 566.865 604.631 564.279 610.481 564.167L610.481 524.84L581.946 524.84L581.946 531.915C585.828 532.053 589.516 533.796 592.258 536.79C595.116 539.911 596.714 544.136 596.714 548.533C596.714 552.929 595.115 557.154 592.258 560.275C589.516 563.269 585.828 565.013 581.946 565.151L581.946 588.354L588.334 588.354Z" stroke="white" stroke-opacity="0.3"/>
<path id="Vector_51" d="M297.177 507.395C297.271 501.026 299.672 494.934 303.892 490.413C308.106 485.9 313.795 483.317 319.758 483.207L319.758 443.88L290.644 443.88L290.644 450.954C294.6 451.09 298.36 452.831 301.157 455.827C304.07 458.948 305.702 463.174 305.702 467.573C305.702 471.973 304.07 476.198 301.157 479.319C298.36 482.314 294.6 484.057 290.644 484.193L290.644 507.395L297.177 507.395Z" stroke="white" stroke-opacity="0.3"/>
<path id="Vector_52" d="M465.415 712.956C465.506 706.655 467.813 700.625 471.871 696.148C475.92 691.682 481.39 689.12 487.127 689.006L487.127 650.074L459.171 650.074L459.171 657.07C462.977 657.21 466.592 658.938 469.279 661.901C472.082 664.993 473.649 669.176 473.649 673.529C473.649 677.882 472.082 682.066 469.279 685.158C466.592 688.122 462.977 689.851 459.171 689.99L459.171 712.956L465.415 712.956Z" stroke="white" stroke-opacity="0.3"/>
<path id="Vector_53" d="M543.886 258.191C543.981 251.884 546.384 245.852 550.603 241.377C554.817 236.907 560.507 234.349 566.468 234.241L566.468 195.309L537.353 195.309L537.353 202.304C541.307 202.439 545.067 204.162 547.864 207.129C550.778 210.219 552.411 214.405 552.411 218.764C552.411 223.123 550.778 227.31 547.864 230.401C545.067 233.368 541.307 235.092 537.353 235.226L537.353 258.191L543.886 258.191Z" stroke="white" stroke-opacity="0.3"/>
<path id="Vector_54" d="M711.689 464.385C711.783 458.081 714.136 452.049 718.275 447.573C722.407 443.105 727.987 440.546 733.836 440.435L733.836 401.503L705.301 401.503L705.301 408.498C709.181 408.635 712.868 410.361 715.61 413.326C718.469 416.418 720.068 420.602 720.068 424.958C720.068 429.314 718.469 433.5 715.61 436.591C712.868 439.556 709.181 441.282 705.301 441.419L705.301 464.385L711.689 464.385Z" stroke="white" stroke-opacity="0.3"/>
<path id="Vector_55" d="M179.447 373.673C179.353 380.041 176.952 386.134 172.732 390.654C168.518 395.168 162.828 397.751 156.865 397.86V437.188H185.98V430.113C182.024 429.978 178.264 428.236 175.467 425.24C172.554 422.12 170.922 417.894 170.922 413.494C170.922 409.095 172.554 404.87 175.467 401.749C178.264 398.753 182.024 397.011 185.98 396.875V373.673H179.447Z" stroke="white" stroke-opacity="0.3"/>
<path id="Vector_56" d="M347.394 579.234C347.301 585.664 344.902 591.817 340.681 596.382C336.468 600.939 330.777 603.549 324.812 603.659V643.382H353.927V636.228C349.97 636.091 346.209 634.332 343.413 631.308C340.5 628.157 338.87 623.891 338.87 619.451C338.87 615.011 340.5 610.746 343.413 607.596C346.209 604.571 349.97 602.811 353.927 602.674V579.234H347.394Z" stroke="white" stroke-opacity="0.3"/>
<path id="Vector_57" d="M425.432 125.102C425.344 131.462 423.084 137.55 419.107 142.072C415.141 146.58 409.781 149.171 404.154 149.289V188.616H431.531V181.541C427.796 181.398 424.254 179.649 421.623 176.658C418.876 173.537 417.342 169.314 417.342 164.923C417.342 160.532 418.876 156.311 421.623 153.189C424.254 150.198 427.796 148.449 431.531 148.305V125.102H425.432Z" stroke="white" stroke-opacity="0.3"/>
<path id="Vector_58" d="M593.234 331.296C593.142 337.535 590.834 343.506 586.776 347.937C582.727 352.36 577.258 354.896 571.522 355.009V393.546H599.478V386.629C595.673 386.49 592.059 384.781 589.372 381.845C586.568 378.784 585 374.64 585 370.327C585 366.014 586.569 361.87 589.372 358.808C592.059 355.873 595.673 354.162 599.478 354.024V331.296H593.234Z" stroke="white" stroke-opacity="0.3"/>
<path id="Vector_59" d="M302.947 249.071C302.855 255.437 300.5 261.528 296.361 266.049C292.23 270.56 286.65 273.146 280.799 273.259V312.586H309.334V305.511C305.452 305.372 301.764 303.63 299.023 300.636C296.165 297.514 294.567 293.289 294.567 288.892C294.567 284.496 296.165 280.271 299.023 277.15C301.764 274.156 305.452 272.413 309.334 272.274V249.071H302.947Z" stroke="white" stroke-opacity="0.3"/>
<path id="Vector_60" d="M469.881 455.265C469.79 461.628 467.484 467.718 463.425 472.239C459.377 476.749 453.907 479.337 448.168 479.452V518.78H476.124V511.704C472.315 511.563 468.701 509.818 466.014 506.826C463.212 503.704 461.645 499.48 461.645 495.086C461.645 490.693 463.212 486.469 466.014 483.348C468.701 480.355 472.315 478.609 476.124 478.468V455.265H469.881Z" stroke="white" stroke-opacity="0.3"/>
<path id="Vector_61" d="M549.221 0.5C549.131 6.8628 546.825 12.9525 542.766 17.4736C538.718 21.9837 533.247 24.5724 527.508 24.6875V64.0146H555.464V56.9395C551.656 56.7985 548.041 55.053 545.355 52.0605C542.553 48.939 540.986 44.7151 540.986 40.3213C540.986 35.9276 542.553 31.7045 545.355 28.583C548.041 25.5904 551.656 23.8441 555.464 23.7031V0.5H549.221Z" stroke="white" stroke-opacity="0.3"/>
<path id="Vector_62" d="M716.445 206.061C716.354 212.489 714.001 218.639 709.861 223.205C705.731 227.76 700.15 230.373 694.298 230.486V270.209H722.833V263.055C718.949 262.915 715.262 261.154 712.52 258.131C709.663 254.98 708.065 250.715 708.065 246.278C708.065 241.841 709.663 237.577 712.52 234.426C715.262 231.403 718.95 229.641 722.833 229.502V206.061H716.445Z" stroke="white" stroke-opacity="0.3"/>
<path id="Vector_63" d="M235.622 443.88C235.528 450.249 233.127 456.341 228.907 460.862C224.694 465.375 219.004 467.958 213.041 468.068V507.395H242.155V500.32C238.2 500.185 234.44 498.443 231.643 495.447C228.729 492.327 227.098 488.101 227.098 483.701C227.098 479.302 228.729 475.077 231.643 471.956C234.44 468.96 238.2 467.218 242.155 467.082V443.88H235.622Z" stroke="white" stroke-opacity="0.3"/>
<path id="Vector_64" d="M402.267 650.074C402.177 656.372 399.917 662.401 395.94 666.878C391.973 671.342 386.614 673.907 380.989 674.024V712.956H408.366V705.96C404.632 705.817 401.091 704.087 398.459 701.126C395.712 698.034 394.177 693.851 394.177 689.501C394.177 685.15 395.712 680.968 398.459 677.876C401.091 674.914 404.632 673.182 408.366 673.04V650.074H402.267Z" stroke="white" stroke-opacity="0.3"/>
<path id="Vector_65" d="M481.752 195.309C481.657 201.616 479.255 207.648 475.035 212.123C470.821 216.593 465.132 219.151 459.17 219.259V258.191H488.285V251.196C484.332 251.061 480.572 249.338 477.775 246.371C474.861 243.281 473.228 239.095 473.228 234.736C473.228 230.377 474.861 226.19 477.775 223.099C480.572 220.132 484.332 218.408 488.285 218.274V195.309H481.752Z" stroke="white" stroke-opacity="0.3"/>
<path id="Vector_66" d="M649.265 401.503C649.172 407.807 646.818 413.838 642.679 418.314C638.548 422.782 632.968 425.342 627.119 425.453V464.385H655.654V457.389C651.774 457.253 648.086 455.527 645.344 452.561C642.486 449.47 640.886 445.286 640.886 440.93C640.886 436.573 642.486 432.388 645.344 429.297C648.086 426.331 651.774 424.606 655.654 424.469V401.503H649.265Z" stroke="white" stroke-opacity="0.3"/>
<path id="Vector_67" d="M358.543 319.278C358.451 325.644 356.097 331.735 351.957 336.256C347.826 340.768 342.246 343.354 336.395 343.466V382.793H364.931V375.718C361.049 375.579 357.361 373.837 354.619 370.843C351.761 367.722 350.163 363.496 350.163 359.1C350.163 354.703 351.762 350.478 354.619 347.357C357.361 344.363 361.049 342.62 364.931 342.481V319.278H358.543Z" stroke="white" stroke-opacity="0.3"/>
<path id="Vector_68" d="M525.911 524.84C525.819 531.205 523.465 537.296 519.326 541.817C515.194 546.329 509.615 548.915 503.764 549.027V588.354H532.299V581.279C528.417 581.141 524.729 579.398 521.988 576.404C519.13 573.283 517.532 569.058 517.532 564.661C517.532 560.264 519.13 556.04 521.988 552.919C524.729 549.924 528.417 548.181 532.299 548.043V524.84H525.911Z" stroke="white" stroke-opacity="0.3"/>
<path id="Vector_69" d="M604.673 69.4421C604.583 75.9309 602.231 82.1415 598.091 86.7517C593.961 91.3511 588.379 93.9889 582.525 94.1033V134.221H611.061V126.988C607.176 126.847 603.487 125.068 600.747 122.016C597.89 118.835 596.293 114.532 596.293 110.054C596.293 105.577 597.89 101.272 600.747 98.0915C603.487 95.0397 607.176 93.2609 611.061 93.1199V69.4421H604.673Z" stroke="white" stroke-opacity="0.3"/>
<path id="Vector_70" d="M772.331 276.268C772.242 282.629 769.983 288.717 766.005 293.238C762.04 297.746 756.679 300.338 751.052 300.456V339.783H778.429V332.708C774.694 332.564 771.152 330.816 768.521 327.825C765.775 324.703 764.241 320.481 764.241 316.09C764.241 311.699 765.775 307.477 768.521 304.355C771.152 301.365 774.694 299.615 778.429 299.472V276.268H772.331Z" stroke="white" stroke-opacity="0.3"/>
<path id="Vector_71" d="M291.364 510.925C291.274 517.414 288.922 523.624 284.782 528.234C280.652 532.833 275.071 535.471 269.217 535.586V575.704H297.752V568.471C293.867 568.33 290.178 566.551 287.437 563.499C284.581 560.318 282.984 556.015 282.984 551.537C282.984 547.059 284.581 542.755 287.437 539.574C290.178 536.522 293.867 534.743 297.752 534.602V510.925H291.364Z" stroke="white" stroke-opacity="0.3"/>
<path id="Vector_72" d="M458.733 717.751C458.64 724.117 456.286 730.208 452.147 734.729C448.015 739.24 442.436 741.826 436.585 741.939V781.266H465.12V774.19C461.238 774.052 457.55 772.31 454.809 769.315C451.951 766.194 450.353 761.969 450.353 757.572C450.353 753.176 451.951 748.951 454.809 745.83C457.55 742.836 461.238 741.092 465.12 740.954V717.751H458.733Z" stroke="white" stroke-opacity="0.3"/>
<path id="Vector_73" d="M537.783 262.354C537.688 268.725 535.239 274.818 530.939 279.338C526.642 283.853 520.842 286.434 514.767 286.541V325.868H544.461V318.794C540.432 318.661 536.599 316.922 533.747 313.925C530.778 310.805 529.114 306.577 529.114 302.175C529.114 297.773 530.778 293.546 533.747 290.426C536.599 287.429 540.432 285.689 544.461 285.556V262.354H537.783Z" stroke="white" stroke-opacity="0.3"/>
<path id="Vector_74" d="M705.007 468.547C704.918 474.972 702.612 481.121 698.553 485.687C694.505 490.241 689.035 492.856 683.294 492.972V532.695H711.25V525.54C707.44 525.397 703.825 523.634 701.139 520.613C698.338 517.461 696.772 513.199 696.772 508.764C696.772 504.33 698.338 500.067 701.139 496.916C703.825 493.894 707.44 492.13 711.25 491.988V468.547H705.007Z" stroke="white" stroke-opacity="0.3"/>
<path id="Vector_75" d="M414.429 387.588C414.333 393.959 411.885 400.052 407.584 404.572C403.288 409.087 397.488 411.668 391.412 411.775V451.103H421.106V444.028C417.077 443.895 413.244 442.156 410.393 439.159C407.424 436.039 405.76 431.812 405.76 427.409C405.76 423.007 407.424 418.78 410.393 415.66C413.244 412.663 417.077 410.923 421.106 410.79V387.588H414.429Z" stroke="white" stroke-opacity="0.3"/>
<path id="Vector_76" d="M581.653 593.782C581.562 600.145 579.256 606.234 575.198 610.755C571.149 615.265 565.679 617.854 559.94 617.969V657.296H587.896V650.221C584.088 650.08 580.473 648.335 577.786 645.342C574.984 642.221 573.417 637.997 573.417 633.603C573.417 629.209 574.984 624.986 577.786 621.865C580.473 618.872 584.087 617.126 587.896 616.985V593.782H581.653Z" stroke="white" stroke-opacity="0.3"/>
<path id="Vector_77" d="M660.413 138.384C660.322 144.686 658.015 150.715 653.957 155.192C649.908 159.658 644.438 162.22 638.701 162.334V201.266H666.657V194.27C662.851 194.13 659.236 192.403 656.549 189.439C653.746 186.347 652.179 182.164 652.179 177.811C652.179 173.458 653.746 169.274 656.549 166.182C659.236 163.218 662.851 161.49 666.657 161.35V138.384H660.413Z" stroke="white" stroke-opacity="0.3"/>
<path id="Vector_78" d="M828.072 343.946C827.978 350.314 825.577 356.407 821.357 360.927C817.143 365.441 811.453 368.024 805.49 368.133V407.46H834.605V400.386C830.649 400.25 826.889 398.509 824.092 395.513C821.179 392.392 819.547 388.166 819.547 383.767C819.547 379.368 821.179 375.142 824.092 372.022C826.889 369.026 830.649 367.284 834.605 367.148V343.946H828.072Z" stroke="white" stroke-opacity="0.3"/>
<path id="Vector_79" d="M56.2364 499.54C56.1432 505.844 53.7894 511.875 49.6505 516.351C45.5189 520.819 39.9392 523.379 34.09 523.49V562.422H62.6251V555.426C58.7448 555.289 55.0577 553.564 52.3155 550.598C49.4572 547.507 47.8576 543.322 47.8575 538.966C47.8575 534.61 49.4571 530.425 52.3155 527.334C55.0577 524.368 58.7448 522.643 62.6251 522.506V499.54H56.2364Z" stroke="white" stroke-opacity="0.3"/>
<path id="Vector_80" d="M223.605 705.101C223.511 711.344 221.156 717.315 217.017 721.747C212.885 726.171 207.306 728.704 201.458 728.814V767.351H229.994V760.434C226.115 760.299 222.429 758.591 219.686 755.655C216.827 752.594 215.226 748.448 215.226 744.132C215.226 739.817 216.827 735.671 219.686 732.61C222.429 729.673 226.115 727.964 229.994 727.829V705.101H223.605Z" stroke="white" stroke-opacity="0.3"/>
<path id="Vector_81" d="M112.413 569.114C112.321 575.48 109.966 581.571 105.827 586.092C101.696 590.604 96.1164 593.189 90.2656 593.302V632.629H118.801V625.554C114.919 625.415 111.231 623.673 108.489 620.679C105.631 617.558 104.033 613.332 104.033 608.936C104.033 604.539 105.631 600.315 108.489 597.193C111.231 594.199 114.919 592.456 118.801 592.318V569.114H112.413Z" stroke="white" stroke-opacity="0.3"/>
<path id="Vector_82" d="M279.781 775.308C279.689 781.674 277.335 787.765 273.195 792.286C269.064 796.797 263.485 799.383 257.634 799.496V838.823H286.169V831.748C282.287 831.609 278.599 829.867 275.858 826.873C273 823.752 271.402 819.526 271.402 815.13C271.402 810.733 273 806.508 275.858 803.387C278.599 800.393 282.287 798.65 286.169 798.511V775.308H279.781Z" stroke="white" stroke-opacity="0.3"/>
<path id="Vector_83" d="M168.154 636.159C168.066 642.645 165.761 648.855 161.702 653.466C157.654 658.063 152.183 660.703 146.441 660.82V700.938H174.397V693.705C170.585 693.561 166.969 691.78 164.284 688.73C161.483 685.549 159.919 681.246 159.919 676.771C159.919 672.296 161.483 667.994 164.284 664.812C166.969 661.762 170.585 659.98 174.397 659.837V636.159H168.154Z" stroke="white" stroke-opacity="0.3"/>
<path id="Vector_84" d="M335.378 842.985C335.286 849.351 332.931 855.442 328.792 859.963C324.661 864.475 319.081 867.061 313.23 867.173V906.5H341.766V899.425C337.884 899.286 334.196 897.544 331.454 894.55C328.596 891.429 326.998 887.203 326.998 882.807C326.998 878.41 328.596 874.186 331.454 871.064C334.196 868.07 337.884 866.327 341.766 866.188V842.985H335.378Z" stroke="white" stroke-opacity="0.3"/>
<path id="Vector_85" d="M112.413 493.48C112.321 487.114 109.966 481.023 105.827 476.502C101.696 471.991 96.1163 469.405 90.2656 469.292L90.2656 429.965L118.801 429.965L118.801 437.04C114.919 437.179 111.231 438.921 108.489 441.915C105.631 445.036 104.033 449.262 104.033 453.658C104.033 458.055 105.631 462.28 108.489 465.401C111.231 468.395 114.919 470.138 118.801 470.277L118.801 493.48L112.413 493.48Z" stroke="white" stroke-opacity="0.3"/>
<path id="Vector_86" d="M279.781 699.674C279.69 693.246 277.337 687.096 273.197 682.53C269.067 677.975 263.487 675.362 257.634 675.249L257.634 635.526L286.169 635.526L286.169 642.68C282.286 642.82 278.598 644.581 275.857 647.604C272.999 650.755 271.402 655.02 271.402 659.457C271.402 663.894 273 668.158 275.857 671.309C278.598 674.332 282.286 676.094 286.169 676.233L286.169 699.674L279.781 699.674Z" stroke="white" stroke-opacity="0.3"/>
<path id="Vector_87" d="M358.543 244.909C358.452 238.481 356.099 232.331 351.959 227.765C347.828 223.209 342.248 220.597 336.395 220.484L336.395 180.761L364.931 180.761L364.931 187.915C361.047 188.055 357.36 189.816 354.618 192.839C351.761 195.99 350.163 200.255 350.163 204.692C350.163 209.129 351.761 213.393 354.618 216.544C357.36 219.567 361.047 221.329 364.931 221.468L364.931 244.909L358.543 244.909Z" stroke="white" stroke-opacity="0.3"/>
<path id="Vector_88" d="M525.911 451.103C525.819 444.737 523.465 438.646 519.326 434.125C515.194 429.613 509.615 427.027 503.764 426.915L503.764 387.588L532.299 387.588L532.299 394.663C528.417 394.801 524.729 396.544 521.988 399.538C519.13 402.659 517.532 406.885 517.532 411.281C517.532 415.678 519.13 419.902 521.988 423.023C524.729 426.018 528.417 427.761 532.299 427.899L532.299 451.103L525.911 451.103Z" stroke="white" stroke-opacity="0.3"/>
<path id="Vector_89" d="M235.622 368.245C235.527 361.939 233.125 355.907 228.905 351.431C224.691 346.961 219.002 344.404 213.041 344.295L213.041 305.364L242.155 305.364L242.155 312.359C238.202 312.493 234.442 314.216 231.645 317.183C228.731 320.274 227.098 324.46 227.098 328.819C227.098 333.178 228.731 337.365 231.645 340.455C234.442 343.422 238.202 345.146 242.155 345.281L242.155 368.245L235.622 368.245Z" stroke="white" stroke-opacity="0.3"/>
<path id="Vector_90" d="M402.267 575.704C402.181 569.221 399.923 563.012 395.945 558.402C391.98 553.807 386.619 551.164 380.989 551.043L380.989 510.925L408.366 510.925L408.366 518.158C404.627 518.305 401.084 520.089 398.454 523.137C395.709 526.318 394.177 530.62 394.177 535.092C394.177 539.564 395.709 543.866 398.454 547.047C401.084 550.095 404.627 551.88 408.366 552.027L408.366 575.704L402.267 575.704Z" stroke="white" stroke-opacity="0.3"/>
<path id="Vector_91" d="M481.752 120.307C481.658 113.938 479.257 107.846 475.037 103.325C470.824 98.8119 465.133 96.2288 459.17 96.1193L459.17 56.7922L488.285 56.7922L488.285 63.8664C484.33 64.0022 480.57 65.7436 477.773 68.7394C474.859 71.8601 473.228 76.0861 473.228 80.4855C473.228 84.8848 474.86 89.1101 477.773 92.2307C480.57 95.2265 484.33 96.9689 488.285 97.1047L488.285 120.307L481.752 120.307Z" stroke="white" stroke-opacity="0.3"/>
<path id="Vector_92" d="M649.266 325.868C649.174 319.502 646.819 313.411 642.68 308.891C638.549 304.379 632.969 301.793 627.119 301.681L627.119 262.354L655.654 262.354L655.654 269.429C651.772 269.567 648.084 271.309 645.342 274.304C642.484 277.425 640.886 281.65 640.886 286.047C640.886 290.443 642.485 294.668 645.342 297.789C648.084 300.783 651.772 302.527 655.654 302.665L655.654 325.868L649.266 325.868Z" stroke="white" stroke-opacity="0.3"/>
<path id="Vector_93" d="M168.153 563.054C168.062 556.753 165.755 550.723 161.697 546.247C157.648 541.78 152.178 539.218 146.441 539.104L146.441 500.173L174.397 500.173L174.397 507.169C170.59 507.308 166.976 509.036 164.289 512C161.486 515.091 159.919 519.275 159.919 523.628C159.919 527.981 161.486 532.165 164.289 535.257C166.976 538.22 170.59 539.949 174.397 540.089L174.397 563.054L168.153 563.054Z" stroke="white" stroke-opacity="0.3"/>
<path id="Vector_94" d="M335.378 769.881C335.287 763.453 332.934 757.303 328.794 752.737C324.663 748.181 319.082 745.569 313.23 745.456L313.23 705.733L341.766 705.733L341.766 712.888C337.882 713.027 334.194 714.788 331.453 717.811C328.596 720.962 326.998 725.227 326.998 729.664C326.998 734.101 328.596 738.365 331.453 741.516C334.194 744.539 337.882 746.301 341.766 746.44L341.766 769.881L335.378 769.881Z" stroke="white" stroke-opacity="0.3"/>
<path id="Vector_95" d="M414.428 314.483C414.331 308.174 411.882 302.14 407.582 297.665C403.285 293.194 397.486 290.639 391.412 290.533L391.412 251.601L421.106 251.601L421.106 258.597C417.079 258.729 413.246 260.45 410.393 263.418C407.424 266.508 405.76 270.695 405.76 275.057C405.76 279.418 407.424 283.606 410.393 286.696C413.246 289.664 417.079 291.386 421.106 291.518L421.106 314.483L414.428 314.483Z" stroke="white" stroke-opacity="0.3"/>
<path id="Vector_96" d="M581.653 520.677C581.562 514.314 579.256 508.225 575.198 503.703C571.149 499.193 565.679 496.605 559.94 496.49L559.94 457.162L587.896 457.162L587.896 464.238C584.087 464.379 580.473 466.124 577.786 469.117C574.984 472.238 573.417 476.462 573.417 480.856C573.417 485.25 574.984 489.473 577.786 492.594C580.473 495.587 584.087 497.333 587.896 497.474L587.896 520.677L581.653 520.677Z" stroke="white" stroke-opacity="0.3"/>
<path id="Vector_97" d="M291.364 439.718C291.273 433.29 288.92 427.139 284.78 422.574C280.649 418.018 275.069 415.406 269.217 415.293L269.217 375.57L297.752 375.57L297.752 382.724C293.868 382.864 290.18 384.625 287.439 387.648C284.582 390.799 282.984 395.064 282.984 399.501C282.984 403.938 284.582 408.202 287.439 411.353C290.18 414.376 293.868 416.137 297.752 416.277L297.752 439.718L291.364 439.718Z" stroke="white" stroke-opacity="0.3"/>
<path id="Vector_98" d="M458.733 645.911C458.642 639.484 456.288 633.333 452.149 628.768C448.018 624.212 442.438 621.6 436.585 621.487L436.585 581.764L465.12 581.764L465.12 588.918C461.237 589.058 457.549 590.819 454.808 593.842C451.951 596.993 450.353 601.257 450.353 605.695C450.353 610.132 451.951 614.396 454.808 617.547C457.549 620.57 461.237 622.331 465.12 622.471L465.12 645.911L458.733 645.911Z" stroke="white" stroke-opacity="0.3"/>
<path id="Vector_99" d="M537.782 189.881C537.685 183.572 535.237 177.538 530.937 173.063C526.64 168.592 520.841 166.037 514.767 165.931L514.767 127L544.461 127L544.461 133.995C540.433 134.127 536.601 135.848 533.748 138.816C530.779 141.906 529.114 146.093 529.114 150.455C529.114 154.817 530.779 159.004 533.748 162.094C536.601 165.063 540.433 166.785 544.461 166.917L544.461 189.881L537.782 189.881Z" stroke="white" stroke-opacity="0.3"/>
<path id="Vector_100" d="M705.007 396.075C704.918 389.651 702.612 383.501 698.553 378.936C694.505 374.382 689.035 371.768 683.294 371.651L683.294 331.928L711.25 331.928L711.25 339.083C707.44 339.226 703.825 340.988 701.139 344.01C698.338 347.161 696.772 351.424 696.772 355.859C696.772 360.293 698.338 364.556 701.139 367.707C703.825 370.729 707.44 372.493 711.25 372.635L711.25 396.075L705.007 396.075Z" stroke="white" stroke-opacity="0.3"/>
<path id="Vector_101" d="M223.606 631.997C223.514 625.631 221.159 619.54 217.02 615.019C212.889 610.507 207.309 607.921 201.458 607.809L201.458 568.482L229.994 568.482L229.994 575.557C226.112 575.695 222.424 577.438 219.682 580.432C216.824 583.553 215.226 587.779 215.226 592.175C215.226 596.572 216.824 600.796 219.682 603.917C222.424 606.912 226.112 608.655 229.994 608.793L229.994 631.997L223.606 631.997Z" stroke="white" stroke-opacity="0.3"/>
<path id="Vector_102" d="M391.408 838.19C391.314 831.822 388.913 825.729 384.693 821.209C380.48 816.696 374.79 814.113 368.827 814.003L368.827 774.676L397.941 774.676L397.941 781.75C393.986 781.886 390.225 783.627 387.428 786.623C384.515 789.744 382.884 793.97 382.884 798.369C382.884 802.768 384.515 806.994 387.428 810.114C390.225 813.11 393.986 814.852 397.941 814.988L397.941 838.19L391.408 838.19Z" stroke="white" stroke-opacity="0.3"/>
<path id="Vector_103" d="M469.881 382.793C469.79 376.43 467.484 370.34 463.425 365.819C459.377 361.309 453.907 358.721 448.168 358.605L448.168 319.278L476.124 319.278L476.124 326.353C472.315 326.494 468.701 328.24 466.014 331.232C463.212 334.354 461.645 338.578 461.645 342.972C461.645 347.365 463.212 351.588 466.014 354.71C468.701 357.702 472.315 359.449 476.124 359.59L476.124 382.793L469.881 382.793Z" stroke="white" stroke-opacity="0.3"/>
<path id="Vector_104" d="M637.973 588.354C637.877 581.983 635.429 575.89 631.128 571.37C626.832 566.855 621.032 564.274 614.957 564.167L614.957 524.84L644.65 524.84L644.65 531.914C640.621 532.047 636.789 533.786 633.937 536.783C630.968 539.903 629.304 544.131 629.304 548.533C629.304 552.935 630.968 557.162 633.937 560.282C636.789 563.279 640.621 565.019 644.65 565.152L644.65 588.354L637.973 588.354Z" stroke="white" stroke-opacity="0.3"/>
<path id="Vector_105" d="M347.394 507.395C347.3 501.026 344.899 494.934 340.679 490.413C336.465 485.9 330.775 483.317 324.812 483.207L324.812 443.88L353.927 443.88L353.927 450.954C349.972 451.09 346.211 452.831 343.415 455.827C340.501 458.948 338.87 463.174 338.87 467.573C338.87 471.973 340.501 476.198 343.415 479.319C346.211 482.314 349.972 484.057 353.927 484.193L353.927 507.395L347.394 507.395Z" stroke="white" stroke-opacity="0.3"/>
<path id="Vector_106" d="M514.472 712.956C514.381 706.655 512.075 700.625 508.016 696.148C503.967 691.682 498.498 689.12 492.761 689.006L492.761 650.074L520.717 650.074L520.717 657.07C516.91 657.21 513.295 658.938 510.608 661.901C507.806 664.993 506.238 669.176 506.238 673.529C506.238 677.882 507.806 682.066 510.608 685.158C513.295 688.122 516.91 689.851 520.717 689.99L520.717 712.956L514.472 712.956Z" stroke="white" stroke-opacity="0.3"/>
<path id="Vector_107" d="M593.234 258.191C593.143 251.89 590.836 245.86 586.778 241.383C582.729 236.917 577.26 234.355 571.522 234.241L571.522 195.309L599.478 195.309L599.478 202.305C595.672 202.445 592.057 204.173 589.37 207.136C586.567 210.228 585 214.411 585 218.764C585 223.117 586.567 227.302 589.37 230.393C592.057 233.357 595.672 235.086 599.478 235.225L599.478 258.191L593.234 258.191Z" stroke="white" stroke-opacity="0.3"/>
<path id="Vector_108" d="M761.326 464.385C761.229 458.075 758.781 452.042 754.481 447.567C750.184 443.096 744.385 440.541 738.312 440.435L738.312 401.503L768.005 401.503L768.005 408.498C763.977 408.63 760.145 410.351 757.292 413.32C754.323 416.41 752.658 420.597 752.658 424.958C752.658 429.32 754.323 433.508 757.292 436.598C760.145 439.566 763.977 441.288 768.005 441.42L768.005 464.385L761.326 464.385Z" stroke="white" stroke-opacity="0.3"/>
</g>
</svg>
